<svg width="17" height="17" viewBox="0 0 17 17" fill="none" xmlns="http://www.w3.org/2000/svg">
<path d="M6.91408 13.1069L5.01866 15.0023C4.23286 15.7881 2.96032 15.7881 2.17518 15.0025C1.38988 14.2172 1.38988 12.9445 2.17502 12.1594L5.96651 8.36787C6.75165 7.58269 8.02432 7.58269 8.80946 8.36787C9.07119 8.6296 9.49557 8.6296 9.75731 8.36787C10.019 8.10613 10.019 7.68175 9.75731 7.42002C8.44867 6.11138 6.3273 6.11138 5.01866 7.42002L1.22721 11.2115C-0.0814325 12.5201 -0.0814325 14.6415 1.22721 15.9501C2.53569 17.2594 4.65721 17.2594 5.96654 15.9501L7.86196 14.0547C8.12369 13.793 8.12369 13.3686 7.86196 13.1069C7.60022 12.8451 7.17581 12.8452 6.91408 13.1069Z" fill="white"/>
<path d="M15.3494 1.82822C14.0407 0.519581 11.9187 0.519581 10.61 1.82822L8.33595 4.1023C8.07421 4.36404 8.07421 4.78842 8.33595 5.05015C8.59768 5.31189 9.02206 5.31189 9.28379 5.05015L11.5579 2.77607C12.343 1.9909 13.6163 1.9909 14.4015 2.77607C15.1867 3.56121 15.1867 4.83388 14.4015 5.61902L10.2314 9.7892C9.44619 10.5744 8.17355 10.5744 7.38841 9.7892C7.12668 9.52747 6.7023 9.52747 6.44056 9.7892C6.17883 10.0509 6.17883 10.4753 6.44056 10.7371C7.7492 12.0457 9.87057 12.0457 11.1792 10.7371L15.3494 6.5669C16.658 5.25826 16.658 3.13686 15.3494 1.82822Z" fill="white"/>
</svg>
