<svg width="16" height="17" viewBox="0 0 16 17" fill="none" xmlns="http://www.w3.org/2000/svg">
<path d="M10.6893 15.5917V12.998C10.7144 12.6784 10.6712 12.3571 10.5626 12.0555C10.454 11.7539 10.2824 11.4789 10.0593 11.2487C12.1638 11.0141 14.3755 10.2165 14.3755 6.55712C14.3753 5.62138 14.0154 4.72151 13.3702 4.04378C13.6757 3.22511 13.6541 2.3202 13.3099 1.51704C13.3099 1.51704 12.519 1.28246 10.6893 2.50897C9.15314 2.09264 7.53386 2.09264 5.99772 2.50897C4.16801 1.28246 3.37714 1.51704 3.37714 1.51704C3.0329 2.3202 3.0113 3.22511 3.31682 4.04378C2.66679 4.72654 2.30648 5.63454 2.31149 6.57723C2.31149 10.2098 4.52323 11.0074 6.62773 11.2688C6.40722 11.4967 6.23716 11.7684 6.12862 12.0663C6.02007 12.3642 5.97547 12.6817 5.99772 12.998V15.5917M5.99772 13.5811C2.6466 14.5864 2.6466 11.9055 1.30615 11.5704L5.99772 13.5811Z" stroke="#FAFAFA" stroke-width="1.34045" stroke-linecap="round" stroke-linejoin="round"/>
</svg>
