<svg width="27" height="27" viewBox="0 0 27 27" fill="none" xmlns="http://www.w3.org/2000/svg">
<g clip-path="url(#clip0_63_221)">
<path d="M13.3333 26.6667C20.6971 26.6667 26.6667 20.6971 26.6667 13.3333C26.6667 5.96954 20.6971 0 13.3333 0C5.96954 0 0 5.96954 0 13.3333C0 20.6971 5.96954 26.6667 13.3333 26.6667Z" fill="#EF860B"/>
<path d="M13.3337 22.1121C9.75201 22.1121 6.60451 19.8171 5.50201 16.4013C5.39617 16.073 5.57617 15.7205 5.90451 15.6146C6.23451 15.508 6.58534 15.6888 6.69117 16.0171C7.62701 18.9146 10.2962 20.8621 13.3337 20.8621C16.3712 20.8621 19.0403 18.9155 19.9762 16.0171C20.082 15.6888 20.4328 15.508 20.7628 15.6146C21.0912 15.7205 21.2712 16.073 21.1653 16.4013C20.0628 19.8171 16.9153 22.1121 13.3337 22.1121Z" fill="#2A2D2F"/>
<path d="M26.6666 13.3333C26.6666 20.6999 20.6958 26.6666 13.3333 26.6666C9.1416 26.6666 5.39994 24.7333 2.9541 21.7041C5.2416 23.5541 8.1541 24.6583 11.3249 24.6583C18.6874 24.6583 24.6583 18.6916 24.6583 11.3249C24.6583 8.1541 23.5541 5.2416 21.7041 2.9541C24.7291 5.39994 26.6666 9.1416 26.6666 13.3333Z" fill="#EF860B"/>
<path d="M11.117 11.1551C10.4903 10.3001 9.36028 9.73179 8.07195 9.73179C6.77778 9.73762 5.64778 10.306 5.02112 11.161C5.05028 9.50346 6.40362 8.16846 8.07195 8.16846C9.72862 8.16846 11.0878 9.49762 11.117 11.1551Z" fill="#2A2D2F"/>
<path d="M21.6472 11.1546C21.0206 10.2996 19.8906 9.7313 18.6022 9.7313C17.3081 9.73714 16.1781 10.3055 15.5514 11.1605C15.5806 9.50297 16.9339 8.16797 18.6022 8.16797C20.2597 8.16797 21.6181 9.49714 21.6472 11.1546Z" fill="#2A2D2F"/>
</g>
<defs>
<clipPath id="clip0_63_221">
<rect width="26.6667" height="26.6667" fill="white"/>
</clipPath>
</defs>
</svg>
